<svg width="199" height="88" viewBox="0 0 199 88" fill="none" xmlns="http://www.w3.org/2000/svg">
<path fill-rule="evenodd" clip-rule="evenodd" d="M181.728 41.609C180.856 43.8541 178.61 46.1399 176.504 46.9257C175.301 47.375 174.25 47.343 173.293 46.8281C171.877 46.0652 171.566 45.1502 171.456 44.5281C171.026 42.1229 172.935 38.6217 174.89 36.3873C177.204 33.7396 180.126 32.354 183.164 32.354C183.85 32.354 184.541 32.4241 185.233 32.5664C183.259 37.659 181.745 41.5647 181.728 41.609ZM148.718 10.9573C150.819 10.0627 153.639 9.88228 154.534 11.1484C154.989 11.7935 155.086 12.4797 154.851 13.3743C154.094 16.2426 150.29 19.5495 147.896 20.6576C147.849 20.6795 147.802 20.7028 147.757 20.7277C147.704 20.7572 144.541 22.4453 139.881 22.2536C141.805 17.3013 144.366 12.8106 148.718 10.9573ZM198.553 10.7347C199.009 9.55902 198.436 8.23237 197.274 7.77084C196.113 7.30931 194.8 7.88724 194.343 9.06292L186.88 28.2576C181.327 26.8232 175.598 28.6724 171.501 33.3563C169.154 36.0396 166.876 40.0439 166.877 43.8241C166.852 43.8556 166.824 43.8805 166.802 43.9131C166.425 44.463 163.033 49.2268 160.042 47.311C159.179 46.7575 159.762 44.6572 160.433 42.5534C160.536 42.2316 160.633 41.9231 160.721 41.6313C160.762 41.4936 160.803 41.3553 160.842 41.2105C161.177 39.9936 160.473 38.7325 159.269 38.3945C158.066 38.0565 156.819 38.7681 156.485 39.9855C155.583 43.2686 152.76 47.987 148.684 47.5189C147.664 47.4025 146.932 46.942 146.447 46.1109C145.675 44.7858 145.635 42.6418 146.35 40.8979C148.518 35.6075 153.849 33.1682 159.026 35.0977C160.196 35.5338 161.498 34.928 161.93 33.7421C162.362 32.5568 161.762 31.2418 160.59 30.8052C153.05 27.9958 145.305 31.5036 142.172 39.1453C141.211 41.49 141.07 44.1611 141.714 46.4337C141.682 46.4505 141.649 46.4601 141.618 46.4789C140.551 47.1118 139.303 47.5133 138.074 47.6338C136.308 47.8066 134.257 47.1331 133.765 45.2448C133.166 42.9448 133.623 40.2488 134.202 37.9869C134.733 35.912 138.109 26.7297 138.3 26.749C144.574 27.394 149.137 25.1575 149.839 24.7895C153.027 23.2906 158.007 19.1546 159.221 14.5535C159.804 12.3445 159.456 10.2478 158.214 8.48957C155.774 5.0352 150.67 5.16228 146.963 6.74104C140.827 9.35417 137.597 15.4019 135.333 21.4805C133.242 20.8482 131 19.7757 128.701 18.0592C127.697 17.309 126.281 17.5245 125.538 18.5406C124.796 19.5566 125.01 20.989 126.015 21.7393C128.713 23.7546 131.355 25.0437 133.84 25.8249C133.685 26.3017 133.534 26.7734 133.385 27.2385L133.299 27.5048C133.016 28.3852 131.653 31.5976 130.158 35.1994C130.154 35.207 130.151 35.2146 130.148 35.2223C129.168 37.5813 128.154 39.8325 127.406 41.0717C125.645 43.9878 122.437 47.3324 119.962 47.7873C119.178 47.9316 118.549 47.7741 117.921 47.278C117.185 46.697 118.073 43.8465 118.5 42.4766C118.626 42.0695 118.746 41.6847 118.846 41.333C118.853 41.3065 118.86 41.2806 118.867 41.2552C118.872 41.2394 118.876 41.2242 118.88 41.2089C119.214 39.9921 118.51 38.731 117.307 38.393C116.104 38.0545 114.857 38.7666 114.522 39.984C114.52 39.9911 114.518 39.9987 114.516 40.0063C113.607 43.2884 110.789 47.9835 106.721 47.5189C105.7 47.4025 104.968 46.942 104.484 46.1104C103.711 44.7853 103.672 42.6418 104.387 40.8979C106.62 35.451 111.398 33.1738 116.561 35.0977C117.732 35.5344 119.033 34.9275 119.464 33.7421C119.897 32.5568 119.297 31.2418 118.124 30.8052C110.719 28.0462 103.354 31.4756 100.209 39.1448C98.9452 42.225 99.094 45.8715 100.588 48.4338C101.791 50.4985 103.789 51.7881 106.215 52.0646C108.983 52.3797 111.622 51.4897 113.902 49.4814C114.204 49.9918 114.607 50.465 115.137 50.8838C116.416 51.8943 117.884 52.4117 119.439 52.4117C119.877 52.4117 120.322 52.3706 120.771 52.2882C124.375 51.6259 127.459 48.5314 129.344 46.1745C129.735 47.8828 130.48 49.1917 131.589 50.1127C133.249 51.6264 135.335 52.2389 137.443 52.2389C139.744 52.2384 142.072 51.5095 143.9 50.4274C143.968 50.3877 144.024 50.3364 144.086 50.2911C145.202 51.2666 146.597 51.8841 148.178 52.0646C150.959 52.3828 153.613 51.4805 155.903 49.4484C156.294 50.0934 156.85 50.681 157.62 51.1745C158.717 51.878 160.08 52.3304 161.584 52.3304C163.769 52.3304 166.25 51.3697 168.65 48.8435C169.316 49.6344 170.152 50.3186 171.166 50.865C172.339 51.4973 173.602 51.8145 174.908 51.8145C175.942 51.8145 177.004 51.6157 178.07 51.2178C179.559 50.6622 181.01 49.7208 182.283 48.5416C182.529 49.1251 182.842 49.6893 183.247 50.2017C184.328 51.5675 185.866 52.3589 187.694 52.4915C187.929 52.5083 188.16 52.5164 188.388 52.5164C194.386 52.5159 197.864 46.8398 198.015 46.5887C198.661 45.5132 198.323 44.1164 197.262 43.4576C196.201 42.7994 194.811 43.1359 194.155 44.2058C194.13 44.2455 191.662 48.1949 188.016 47.9281C187.295 47.8762 186.987 47.6048 186.781 47.3461C184.771 44.8265 186.641 41.4656 187.621 38.9384C188.852 35.7631 190.083 32.5873 191.314 29.412C192.667 25.92 194.02 22.4285 195.374 18.937C196.301 16.5445 197.229 14.1525 198.155 11.7604C198.288 11.4184 198.421 11.0768 198.553 10.7347Z" fill="white"/>
<path fill-rule="evenodd" clip-rule="evenodd" d="M85.7874 68.2993C82.1173 78.0156 75.4495 83.1028 65.9691 83.4196C61.0208 83.5886 56.666 81.9351 53.7052 78.7752C50.9237 75.8061 49.6174 71.6649 50.0279 67.1149C50.4003 62.9903 52.6175 56.7812 57.6423 52.8572C60.7412 50.438 64.4809 49.2216 68.7999 49.2216C70.1627 49.2216 71.5839 49.3429 73.059 49.5856C79.1832 50.5924 82.481 52.809 86.9361 55.8765C87.658 60.2965 87.2671 64.3819 85.7874 68.2993ZM103.889 8.57741C105.111 10.1335 105.798 12.0688 105.864 14.2235C105.958 17.3352 104.708 19.5559 102.742 20.7896C101.296 21.6968 99.5001 21.9522 98.1661 21.4419C97.2472 21.0901 96.6542 20.42 96.3529 19.3944C95.0647 15.0079 99.0336 11.8404 100.24 10.8595C101.363 9.94616 102.589 9.18462 103.889 8.57741ZM152.198 58.7749C145.285 66.3031 134.842 68.7436 121.157 66.0258C107.735 63.3604 96.7695 56.8401 95.5629 56.1055C93.8596 55.0677 92.387 54.0853 90.9955 53.1349C90.0861 49.0632 88.408 44.7909 85.956 40.281C85.4643 39.3773 84.954 38.4721 84.4401 37.5618C80.6259 30.8008 77.0227 24.4145 79.8762 16.5797C82.7121 9.60954 88.5707 4.90065 94.8123 4.5808C95.2677 4.55694 95.7463 4.56912 96.233 4.61583C97.4617 4.73311 98.6991 5.06159 99.8578 5.56827C99.0013 6.08714 98.1771 6.6654 97.3922 7.30358C92.6938 11.124 90.5965 15.8948 92.0051 20.691C92.7049 23.0737 94.3211 24.8577 96.5559 25.7132C99.2059 26.7276 102.494 26.3275 105.139 24.6683C108.491 22.5644 110.54 18.841 110.396 14.0839C110.319 11.5555 109.62 9.17952 108.393 7.13502C113.264 6.21711 118.631 7.10355 123.366 9.8441C124.451 10.4731 125.838 10.0959 126.461 9.00132C127.084 7.90723 126.71 6.51056 125.624 5.88254C119.096 2.10273 111.525 1.27468 104.952 3.2943C104.795 3.1755 104.636 3.05974 104.474 2.94652C102.15 1.32951 99.4487 0.333407 96.6627 0.0668663C95.9579 -0.000149674 95.2581 -0.0169037 94.5815 0.017112C86.5812 0.427839 79.1553 6.26534 75.6635 14.8891C75.6539 14.9129 75.6448 14.9368 75.6362 14.9607C72.0276 24.8059 76.5275 32.7824 80.4984 39.8201C81.0002 40.7095 81.4994 41.5939 81.9796 42.4768C83.2532 44.8183 84.295 47.0598 85.1081 49.217C81.971 47.3304 78.6424 45.8738 73.7898 45.0757C66.3427 43.8517 59.9772 45.2544 54.8657 49.2454C48.6892 54.0681 45.9672 61.6632 45.5127 66.7016C44.9827 72.5746 46.7218 77.9765 50.4086 81.9117C54.1025 85.8555 59.3621 88 65.2893 88C65.5648 88 65.8414 87.9954 66.1195 87.9863C77.4388 87.6081 85.7051 81.3624 90.0252 69.925C91.329 66.4736 91.9164 62.8837 91.7829 59.1227C92.2459 59.4167 92.724 59.7147 93.2177 60.0157C94.4934 60.793 106.095 67.6921 120.28 70.5088C135.397 73.5103 147.585 70.5266 155.526 61.8785C156.376 60.9519 156.321 59.5065 155.402 58.65C154.482 57.793 153.049 57.8484 152.198 58.7749Z" fill="white"/>
<mask id="mask0_757_121" style="mask-type:luminance" maskUnits="userSpaceOnUse" x="0" y="8" width="20" height="28">
<path fill-rule="evenodd" clip-rule="evenodd" d="M0 8.64648H19.6166V35.1059H0V8.64648Z" fill="white"/>
</mask>
<g mask="url(#mask0_757_121)">
<path fill-rule="evenodd" clip-rule="evenodd" d="M6.69965 31.6001C9.31566 31.6001 11.5487 30.6522 13.4001 28.7558C14.3366 27.7967 15.0365 26.752 15.4995 25.6214C15.9615 24.4923 16.193 23.2432 16.193 21.8765C16.193 19.2082 15.2616 16.921 13.4001 15.0129C11.5377 13.1058 9.30474 12.1528 6.69965 12.1528H3.43883V31.6001H6.69965ZM6.69993 8.64648C10.2519 8.64648 13.2926 9.94246 15.8222 12.5329C17.092 13.834 18.0418 15.2536 18.6722 16.7913C19.3016 18.3294 19.6166 20.0238 19.6166 21.8765C19.6166 25.5257 18.3513 28.6459 15.8222 31.2363C13.3036 33.816 10.2628 35.1059 6.69993 35.1059H1.72722C1.49076 35.1059 1.26721 35.0591 1.05757 34.965C0.847436 34.8719 0.664126 34.7477 0.508139 34.593C0.352649 34.4388 0.228455 34.2536 0.137049 34.0389C0.0451454 33.8242 -6.10352e-05 33.5952 -6.10352e-05 33.353V10.3994C-6.10352e-05 10.1572 0.0451454 9.92822 0.137049 9.71298C0.228455 9.49826 0.352649 9.31406 0.508139 9.15887C0.664126 9.00521 0.847436 8.88105 1.05757 8.78692C1.26721 8.69381 1.49076 8.64648 1.72722 8.64648H6.69993Z" fill="white"/>
</g>
<path fill-rule="evenodd" clip-rule="evenodd" d="M25.5484 33.8551V27.1785C25.5484 26.723 25.6863 26.3376 25.9625 26.022C26.2388 25.7069 26.5714 25.5488 26.9609 25.5488C27.3503 25.5488 27.6826 25.7069 27.9592 26.022C28.2354 26.3376 28.3779 26.723 28.3871 27.1785V33.8551C28.3779 34.3102 28.2354 34.6955 27.9592 35.0106C27.6826 35.3267 27.3503 35.4843 26.9609 35.4843C26.5714 35.4843 26.2388 35.3267 25.9625 35.0106C25.6863 34.6955 25.5484 34.3102 25.5484 33.8551Z" fill="white"/>
<path fill-rule="evenodd" clip-rule="evenodd" d="M61.0322 33.8551V27.1785C61.0322 26.723 61.1701 26.3376 61.4464 26.022C61.7226 25.7069 62.0552 25.5488 62.4447 25.5488C62.8342 25.5488 63.1664 25.7069 63.443 26.022C63.7192 26.3376 63.8617 26.723 63.8709 27.1785V33.8551C63.8617 34.3102 63.7192 34.6955 63.443 35.0106C63.1664 35.3267 62.8342 35.4843 62.4447 35.4843C62.0552 35.4843 61.7226 35.3267 61.4464 35.0106C61.1701 34.6955 61.0322 34.3102 61.0322 33.8551Z" fill="white"/>
<path fill-rule="evenodd" clip-rule="evenodd" d="M44.7098 20.5547C43.8967 20.5547 43.1389 20.7119 42.4363 21.0267C41.7332 21.3415 41.1239 21.7657 40.6073 22.2988C40.0908 22.8335 39.6822 23.4595 39.3796 24.1783C39.078 24.8976 38.9269 25.6621 38.9269 26.4711C38.9269 27.2797 39.078 28.0441 39.3796 28.7629C39.6822 29.4822 40.0908 30.1093 40.6073 30.6424C41.1239 31.1766 41.7332 31.6003 42.4363 31.9151C43.1389 32.2299 43.8967 32.387 44.7098 32.387C45.5112 32.387 46.2635 32.2299 46.9665 31.9151C47.6696 31.6003 48.282 31.1735 48.8036 30.6341C49.3247 30.0947 49.7373 29.4682 50.0389 28.7546C50.3406 28.0415 50.4921 27.2797 50.4921 26.4711C50.4921 25.6621 50.3406 24.9002 50.0389 24.1871C49.7373 23.4735 49.3247 22.8465 48.8036 22.3076C48.282 21.7683 47.6696 21.3415 46.9665 21.0267C46.2635 20.7119 45.5112 20.5547 44.7098 20.5547ZM50.492 33.8366C48.8446 35.2187 46.9168 35.9095 44.7097 35.9095C42.1614 35.9095 39.9868 34.9884 38.1857 33.1458C36.3842 31.3026 35.4839 29.0777 35.4839 26.4711C35.4839 23.864 36.3842 21.6391 38.1857 19.796C39.9868 17.9533 42.1614 17.0322 44.7097 17.0322C47.2356 17.0322 49.4098 17.9533 51.2337 19.796C53.0347 21.6391 53.9355 23.864 53.9355 26.4711V35.8421C53.9355 36.6511 53.8143 37.4156 53.5725 38.1349C53.3313 38.8537 52.9967 39.5139 52.5679 40.115C52.1395 40.7161 51.6341 41.258 51.0527 41.7414C50.4697 42.2247 49.8417 42.6318 49.166 42.9638C48.4908 43.2952 47.7846 43.5508 47.0491 43.7308C46.3131 43.9102 45.5775 44 44.8415 44C43.962 44 43.1002 43.8848 42.2547 43.6551C41.4087 43.4243 40.6073 43.0841 39.8494 42.635C39.0916 42.1853 38.3966 41.6294 37.7655 40.9666C37.1339 40.3032 36.5981 39.5616 36.1591 38.7412C35.9832 38.4829 35.895 38.1681 35.895 37.7973C35.895 37.2916 36.0608 36.8731 36.3897 36.5422C36.7192 36.2103 37.1314 36.0448 37.6251 36.0448C37.9551 36.0448 38.2268 36.1232 38.4407 36.2808C38.6551 36.4374 38.9486 36.786 39.3222 37.3258C39.6953 37.8647 40.0253 38.2749 40.3107 38.5555C41.5628 39.837 43.0729 40.4775 44.8415 40.4775C46.6208 40.4775 48.1248 39.8479 49.3555 38.5897C50.1129 37.6458 50.492 36.7299 50.492 35.8421V33.8366Z" fill="white"/>
<path fill-rule="evenodd" clip-rule="evenodd" d="M65.2903 19.8714C65.2903 20.656 65.0139 21.3248 64.4601 21.8786C63.9058 22.4323 63.2363 22.7096 62.4516 22.7096C61.667 22.7096 60.998 22.4323 60.4441 21.8786C59.8893 21.3248 59.6129 20.656 59.6129 19.8714C59.6129 19.0859 59.8893 18.4175 60.4441 17.8633C60.998 17.3096 61.667 17.0322 62.4516 17.0322C63.2363 17.0322 63.9058 17.3096 64.4601 17.8633C65.0139 18.4175 65.2903 19.0859 65.2903 19.8714Z" fill="#EE6C8A"/>
<path fill-rule="evenodd" clip-rule="evenodd" d="M29.8064 19.8714C29.8064 20.656 29.5296 21.3248 28.9758 21.8786C28.4215 22.4323 27.7521 22.7096 26.9675 22.7096C26.1834 22.7096 25.5145 22.4323 24.9602 21.8786C24.4054 21.3248 24.129 20.656 24.129 19.8714C24.129 19.0859 24.4054 18.4175 24.9602 17.8633C25.5145 17.3096 26.1834 17.0322 26.9675 17.0322C27.7521 17.0322 28.4215 17.3096 28.9758 17.8633C29.5296 18.4175 29.8064 19.0859 29.8064 19.8714Z" fill="white"/>
</svg>
