<svg width="120" height="54" viewBox="0 0 120 54" fill="none" xmlns="http://www.w3.org/2000/svg">
<g clip-path="url(#clip0_102_932)">
<path d="M119.902 6.1663C120.035 5.82437 120.028 5.44312 119.883 5.10641C119.737 4.7697 119.465 4.50513 119.126 4.37088C118.787 4.23664 118.409 4.24373 118.076 4.39059C117.742 4.53744 117.48 4.81205 117.347 5.15398L112.818 16.7727C109.463 15.905 105.971 17.025 103.485 19.8496C102.061 21.4743 100.679 23.899 100.679 26.1882L100.633 26.2405C100.405 26.5729 98.346 29.456 96.5313 28.299C96.0067 27.9636 96.3605 26.6898 96.7692 25.419C96.8302 25.2221 96.8912 25.0374 96.943 24.859C96.9674 24.7759 96.9918 24.6928 97.0162 24.6036C97.1068 24.2521 97.0568 23.8787 96.8771 23.564C96.6974 23.2494 96.4023 23.0185 96.0555 22.9212C95.7086 22.824 95.3378 22.8681 95.0229 23.0441C94.708 23.22 94.4742 23.5138 94.372 23.862C93.826 25.8498 92.112 28.7083 89.6386 28.4221C89.3599 28.4052 89.0899 28.3184 88.8529 28.1696C88.6159 28.0207 88.4194 27.8146 88.2814 27.5698C87.8117 26.7698 87.7873 25.4713 88.2204 24.4159C89.5379 21.2127 92.7738 19.7358 95.9152 20.905C96.0844 20.9679 96.2643 20.9965 96.4444 20.9892C96.6246 20.9819 96.8016 20.9389 96.9653 20.8626C97.129 20.7863 97.2762 20.6783 97.3985 20.5446C97.5208 20.4109 97.6158 20.2542 97.678 20.0835C97.7403 19.9128 97.7687 19.7314 97.7614 19.5496C97.7542 19.3678 97.7116 19.1892 97.636 19.0241C97.5604 18.8589 97.4532 18.7104 97.3207 18.5871C97.1882 18.4637 97.0329 18.3678 96.8637 18.305C92.2889 16.6065 87.5891 18.7296 85.686 23.3543C85.1128 24.7538 85.0152 26.3054 85.4084 27.7667C85.3885 27.7747 85.3692 27.7839 85.3505 27.7944C84.6909 28.1784 83.958 28.4165 83.2003 28.4929C82.1268 28.5975 80.8824 28.1852 80.5835 27.0467C80.2206 25.6559 80.4981 24.022 80.8489 22.6528C81.1721 21.3974 83.2217 15.8373 83.3376 15.8496C85.7393 16.1141 88.1668 15.7042 90.3523 14.6649C92.2859 13.7572 95.3083 11.2526 96.0463 8.46789C96.2281 7.84951 96.2676 7.19745 96.1619 6.56133C96.0562 5.92521 95.8081 5.32181 95.4364 4.79705C93.9572 2.7047 90.8616 2.78162 88.6108 3.73857C84.8869 5.32014 82.9258 8.96944 81.5503 12.6618C80.101 12.211 78.7399 11.5104 77.5276 10.591C77.3826 10.4829 77.2179 10.4047 77.043 10.3608C76.868 10.3169 76.6862 10.3082 76.5079 10.3352C76.3296 10.3622 76.1584 10.4244 76.0039 10.5182C75.8495 10.612 75.7148 10.7355 75.6077 10.8818C75.5005 11.0281 75.423 11.1942 75.3795 11.3707C75.336 11.5472 75.3274 11.7306 75.3541 11.9105C75.3809 12.0903 75.4425 12.2631 75.5355 12.419C75.6284 12.5748 75.7509 12.7106 75.8959 12.8187C77.3304 13.9027 78.9358 14.7349 80.6445 15.2803C80.551 15.5696 80.4595 15.8557 80.37 16.1388L80.3182 16.2988C80.1443 16.8311 79.3178 18.7758 78.409 20.9574C77.9283 22.1721 77.3721 23.355 76.7437 24.499C75.6763 26.2652 73.7274 28.2898 72.2269 28.5637C72.011 28.6123 71.7868 28.6098 71.572 28.5564C71.3572 28.503 71.1575 28.4002 70.9887 28.256C70.5403 27.9052 71.0801 26.179 71.3394 25.3482C71.4156 25.1021 71.4888 24.8713 71.5498 24.6559C71.5484 24.6405 71.5484 24.6251 71.5498 24.6097C71.5512 24.6006 71.5512 24.5912 71.5498 24.582C71.6404 24.2305 71.5904 23.8572 71.4107 23.5425C71.231 23.2278 70.9359 22.997 70.5891 22.8997C70.2422 22.8024 69.8714 22.8465 69.5565 23.0225C69.2416 23.1985 69.0078 23.4923 68.9056 23.8405C68.3536 25.8282 66.6426 28.6714 64.1752 28.3883C63.8966 28.3714 63.6265 28.2846 63.3895 28.1357C63.1525 27.9869 62.9561 27.7807 62.818 27.536C62.3484 26.7359 62.324 25.4375 62.7571 24.382C64.1143 21.0835 67.0269 19.705 70.1469 20.8712C70.4886 20.9981 70.8664 20.9828 71.197 20.8288C71.5275 20.6747 71.7839 20.3944 71.9097 20.0496C72.0355 19.7049 72.0204 19.3238 71.8676 18.9903C71.7149 18.6567 71.4371 18.398 71.0954 18.2712C66.6029 16.6003 62.1318 18.6773 60.2226 23.3205C59.4571 25.1851 59.5455 27.3913 60.4513 28.9421C60.8074 29.5555 61.3028 30.0748 61.8966 30.4572C62.4905 30.8397 63.1659 31.0745 63.8672 31.1422C64.7105 31.2319 65.563 31.1389 66.3678 30.8693C67.1725 30.5998 67.9109 30.1599 68.5335 29.5791C68.7287 29.9062 68.9832 30.1932 69.2838 30.4252C70.0247 31.0233 70.9455 31.3489 71.8945 31.3483C72.1655 31.3478 72.436 31.3231 72.7027 31.2745C74.8894 30.8714 76.762 29.0006 77.9057 27.5821C78.0796 28.509 78.5589 29.3494 79.266 29.9668C80.2481 30.8307 81.5166 31.2899 82.8191 31.2529C84.1973 31.2356 85.5476 30.8582 86.7381 30.1575C86.7735 30.144 86.8081 30.1286 86.8419 30.1114C87.5423 30.7151 88.4081 31.0896 89.3244 31.1852C90.1727 31.2753 91.0302 31.1805 91.839 30.9071C92.6478 30.6337 93.3889 30.1881 94.0121 29.6006C94.2752 30.0258 94.6322 30.3838 95.0551 30.6468C95.7757 31.1044 96.6101 31.3465 97.4615 31.3453C98.7882 31.3453 100.292 30.7637 101.75 29.2344C102.176 29.7385 102.694 30.1561 103.275 30.4652C103.972 30.8434 104.752 31.0411 105.544 31.0406C106.199 31.0349 106.849 30.9119 107.462 30.6775C108.41 30.3084 109.279 29.759 110.021 29.0591C110.17 29.4179 110.366 29.7552 110.603 30.0622C110.931 30.4724 111.341 30.8081 111.806 31.0473C112.271 31.2864 112.781 31.4236 113.302 31.4499C113.446 31.4499 113.586 31.4653 113.723 31.4653C117.365 31.4653 119.475 28.0283 119.567 27.8744C119.74 27.5617 119.786 27.1935 119.696 26.8471C119.606 26.5007 119.386 26.203 119.083 26.0166C118.78 25.8302 118.417 25.7696 118.07 25.8475C117.724 25.9254 117.421 26.1358 117.225 26.4344C117.225 26.4559 115.7 28.8467 113.498 28.6867C113.357 28.6862 113.218 28.6536 113.091 28.5912C112.964 28.5289 112.853 28.4385 112.766 28.3267C111.546 26.8036 112.68 24.7697 113.275 23.2374L115.511 17.4711C116.324 15.3562 117.145 13.2423 117.975 11.1295C118.536 9.68329 119.098 8.23506 119.661 6.78478L119.902 6.1663ZM89.6599 6.29861C90.9348 5.75706 92.6457 5.64937 93.1886 6.41554C93.3252 6.60826 93.414 6.83126 93.4474 7.06578C93.4809 7.3003 93.458 7.5395 93.3808 7.76326C92.9233 9.49867 90.6145 11.5018 89.1597 12.1726L89.0774 12.2157C87.5815 12.9112 85.94 13.228 84.2952 13.1387C85.4633 10.1418 87.0187 7.42171 89.6599 6.29861ZM109.691 24.8559C109.164 26.2129 107.801 27.5975 106.523 28.0744C106.214 28.2105 105.878 28.2756 105.541 28.265C105.204 28.2543 104.874 28.1682 104.574 28.0129C103.714 27.5513 103.525 26.9975 103.458 26.6221C103.198 25.1667 104.354 23.0466 105.541 21.6989C106.947 20.0989 108.722 19.2589 110.564 19.2589C110.986 19.2595 111.407 19.3028 111.82 19.3881C110.631 22.4651 109.716 24.8282 109.691 24.8559Z" fill="#26C6D0"/>
<path d="M91.6668 35.6193C87.4824 40.1824 81.16 41.6625 72.8766 40.0163C64.7517 38.4009 58.1122 34.447 57.3832 34.0039C56.3524 33.3885 55.4588 32.7731 54.617 32.2008C53.9665 29.4736 52.9399 26.8521 51.5672 24.4129C51.2622 23.8652 50.9572 23.3144 50.6522 22.7637C48.3435 18.6651 46.1628 14.7943 47.889 10.0465C49.6061 5.82179 53.1531 2.96943 56.9319 2.77558C57.2187 2.76148 57.5061 2.76868 57.7919 2.79712C58.548 2.87292 59.2879 3.06705 59.9848 3.37251C59.4647 3.68901 58.9665 4.04058 58.4934 4.42484C55.6479 6.7418 54.3791 9.6311 55.2331 12.5388C55.4209 13.2283 55.7674 13.8632 56.2444 14.392C56.7213 14.9208 57.3153 15.3285 57.978 15.582C58.8338 15.8766 59.7445 15.9725 60.6421 15.8628C61.5398 15.7531 62.4014 15.4404 63.1627 14.9481C65.1939 13.6742 66.4352 11.4188 66.3468 8.53569C66.3074 7.04886 65.8871 5.59765 65.1269 4.3233C68.2448 3.7713 71.4557 4.35355 74.188 5.96641C74.3444 6.05712 74.517 6.11587 74.6959 6.1393C74.8748 6.16273 75.0565 6.15036 75.2307 6.10293C75.4049 6.0555 75.5681 5.97393 75.711 5.86286C75.8539 5.7518 75.9738 5.61342 76.0637 5.45563C76.1536 5.29784 76.2118 5.12373 76.235 4.94323C76.2583 4.76274 76.246 4.57939 76.199 4.40367C76.152 4.22795 76.0711 4.06329 75.961 3.9191C75.851 3.7749 75.7138 3.654 75.5574 3.56329C73.6873 2.46039 71.6145 1.75256 69.4649 1.48279C67.3154 1.21303 65.1338 1.38696 63.0529 1.99402C62.9584 1.92325 62.8638 1.85248 62.7632 1.78479C61.3613 0.804884 59.7336 0.204186 58.0359 0.0401367C57.6173 -0.000644132 57.1964 -0.0109199 56.7763 0.00937441C51.9331 0.25861 47.4376 3.79713 45.3241 9.02185L45.3058 9.06493C43.1221 15.0312 45.8456 19.8682 48.2519 24.1421C48.5569 24.6806 48.8619 25.216 49.1486 25.7514C49.8709 27.0687 50.5036 28.4339 51.0426 29.8376C48.9478 28.5463 46.6174 27.6925 44.1895 27.3268C39.6818 26.5853 35.8268 27.4345 32.7342 29.853C28.9951 32.7762 27.3451 37.3793 27.0706 40.4348C26.7656 43.9918 27.8026 47.2657 30.0351 49.6657C32.2676 52.0658 35.4547 53.3581 39.0444 53.3581H39.5446C46.3976 53.1304 51.4025 49.3426 54.0192 42.4133C54.8068 40.3251 55.1688 38.0981 55.0836 35.8654C55.3612 36.0439 55.6509 36.2224 55.9498 36.407C56.7245 36.8778 63.7453 41.0594 72.3337 42.7671C81.4833 44.5856 88.864 42.7671 93.6827 37.5362C93.9303 37.2665 94.0614 36.9087 94.0474 36.5414C94.0334 36.1741 93.8754 35.8275 93.608 35.5778C93.3407 35.328 92.986 35.1957 92.6219 35.2098C92.2579 35.224 91.9143 35.3834 91.6668 35.6531V35.6193ZM62.4216 5.18793C63.1776 6.16737 63.5972 7.36833 63.6172 8.60953C63.6751 10.4957 62.9187 11.8404 61.7293 12.5881C61.3252 12.856 60.8674 13.0305 60.3887 13.0991C59.91 13.1677 59.4221 13.1288 58.96 12.985C58.6908 12.8867 58.4498 12.723 58.2583 12.5083C58.0668 12.2936 57.9307 12.0346 57.8621 11.7542C57.0813 9.0957 59.4846 7.17566 60.2135 6.5818C60.8904 6.02798 61.6319 5.55988 62.4216 5.18793ZM51.4635 41.3917C49.2432 47.2811 45.2051 50.3642 39.4683 50.558C36.4703 50.6596 33.8352 49.6565 32.0419 47.7426C30.3584 45.9426 29.5685 43.4348 29.8155 40.6655C30.0412 38.167 31.3831 34.4039 34.4269 32.0254C36.3026 30.5576 38.5656 29.8223 41.1824 29.8223C42.0458 29.8261 42.9075 29.8991 43.7595 30.0407C47.4681 30.6561 49.4627 31.9946 52.1619 33.8531C52.6101 36.3834 52.3687 38.989 51.4635 41.3917Z" fill="#26C6D0"/>
<path d="M4.11429 5.40952C5.1574 5.39404 6.19256 5.59469 7.15572 5.99905C8.11888 6.4034 8.98954 7.00286 9.71384 7.76033C10.4575 8.4954 11.0512 9.37037 11.4614 10.3358C11.8585 11.3116 12.0566 12.358 12.0439 13.4128C12.0439 15.5345 11.2085 17.5694 9.7214 19.0697C8.2343 20.57 6.21736 21.4129 4.11429 21.4129H1.06442C0.922993 21.4139 0.782867 21.3856 0.6527 21.3298C0.527924 21.2751 0.413395 21.1991 0.314151 21.1052C0.218289 21.0084 0.140769 20.8947 0.0854114 20.7698C0.0300897 20.6385 0.0020757 20.4971 0.00307772 20.3544V6.47109C0.0020757 6.3284 0.0300897 6.18702 0.0854114 6.05569C0.140769 5.93077 0.218289 5.81711 0.314151 5.7203C0.412597 5.62538 0.527315 5.54927 0.6527 5.49568C0.782672 5.43889 0.922789 5.40957 1.06442 5.40952H4.11429ZM4.11429 19.2898C4.87973 19.302 5.63952 19.1557 6.34666 18.8598C7.05381 18.564 7.69327 18.1249 8.2255 17.5698C8.78214 17.0345 9.22227 16.3882 9.51788 15.672C9.81349 14.9558 9.95813 14.1853 9.94258 13.4097C9.93377 11.8529 9.3169 10.3624 8.22578 9.26163C7.13467 8.16081 5.65733 7.53844 4.11429 7.52956H2.11053V19.2898H4.11429Z" fill="#26C6D0"/>
<path d="M15.6976 20.3603V16.0525C15.6963 15.9151 15.7221 15.7789 15.7734 15.6517C15.8247 15.5244 15.9004 15.4087 15.9962 15.3111C16.0921 15.2136 16.2061 15.1361 16.3318 15.0833C16.4575 15.0305 16.5923 15.0032 16.7284 15.0033C16.8643 15.0016 16.9991 15.028 17.1245 15.0809C17.2498 15.1338 17.3631 15.2121 17.4573 15.3109C17.6518 15.5093 17.7613 15.7766 17.7623 16.0556V20.3634C17.7619 20.6424 17.6523 20.91 17.4573 21.108C17.3126 21.254 17.1281 21.3533 16.9273 21.3931C16.7264 21.4329 16.5184 21.4116 16.3297 21.3317C16.1409 21.2518 15.98 21.1171 15.8674 20.9446C15.7549 20.7722 15.6957 20.5698 15.6976 20.3634V20.3603Z" fill="#26C6D0"/>
<path d="M36.391 20.3603V16.0525C36.3898 15.9151 36.4156 15.7789 36.4669 15.6517C36.5181 15.5244 36.5939 15.4087 36.6897 15.3111C36.7856 15.2136 36.8996 15.1361 37.0253 15.0833C37.1509 15.0305 37.2857 15.0032 37.4219 15.0033C37.5578 15.0016 37.6926 15.028 37.8179 15.0809C37.9433 15.1338 38.0566 15.2121 38.1508 15.3109C38.3452 15.5093 38.4547 15.7766 38.4558 16.0556V20.3634C38.4554 20.6424 38.3458 20.91 38.1508 21.108C38.0061 21.254 37.8216 21.3533 37.6207 21.3931C37.4199 21.4329 37.2119 21.4116 37.0231 21.3317C36.8344 21.2518 36.6735 21.1171 36.5609 20.9446C36.4483 20.7722 36.3892 20.5698 36.391 20.3634V20.3603Z" fill="#26C6D0"/>
<path d="M30.5567 20.1817C29.8649 20.742 29.0502 21.127 28.1807 21.3044C27.3112 21.4818 26.4122 21.4465 25.559 21.2014C24.7058 20.9563 23.9232 20.5086 23.2768 19.8958C22.6303 19.2829 22.1387 18.5227 21.8432 17.6789C21.5477 16.835 21.4568 15.932 21.5783 15.0454C21.6997 14.1588 22.0299 13.3145 22.5411 12.5831C23.0524 11.8517 23.7299 11.2545 24.5169 10.8415C25.3039 10.4285 26.1775 10.2117 27.0646 10.2092C28.5367 10.2092 29.9486 10.7992 30.9896 11.8495C32.0305 12.8997 32.6153 14.3241 32.6153 15.8093V21.3694C32.6181 21.833 32.5439 22.2937 32.3957 22.7325C32.2531 23.1525 32.0474 23.5479 31.7858 23.9049C31.5245 24.2664 31.2168 24.5912 30.8708 24.871C30.5218 25.1567 30.1411 25.4004 29.7363 25.5972C29.3284 25.793 28.901 25.9447 28.4614 26.0495C28.0271 26.1558 27.5817 26.2095 27.1347 26.2095C26.6097 26.2103 26.0868 26.142 25.5793 26.0065C25.0714 25.8673 24.5842 25.6603 24.1306 25.3911C23.6692 25.1211 23.2473 24.7877 22.8771 24.4003C22.4956 24.0077 22.1702 23.5634 21.9103 23.0802C21.8001 22.9152 21.7446 22.7191 21.7517 22.5202C21.7488 22.3816 21.7744 22.2438 21.8269 22.1157C21.8794 21.9875 21.9576 21.8717 22.0567 21.7756C22.1531 21.6763 22.2685 21.5978 22.3959 21.5449C22.5233 21.492 22.6601 21.4658 22.7978 21.4679C22.9722 21.4616 23.1441 21.5112 23.2889 21.6094C23.4943 21.7876 23.6731 21.9949 23.8195 22.2248C24.0017 22.4852 24.2058 22.7292 24.4295 22.9541C25.1512 23.6796 26.1274 24.0885 27.1462 24.092C28.165 24.0954 29.144 23.6931 29.8705 22.9725C30.2818 22.527 30.5247 21.9498 30.5567 21.3417V20.1817ZM27.0646 12.3016C26.5937 12.2969 26.1271 12.3923 25.6952 12.5816C25.2838 12.7596 24.9101 13.0155 24.5942 13.3354C24.2824 13.6578 24.0322 14.0354 23.8561 14.4493C23.677 14.8799 23.5847 15.3423 23.5847 15.8093C23.5847 16.2764 23.677 16.7387 23.8561 17.1694C24.0314 17.5846 24.2817 17.9634 24.5942 18.2863C24.9101 18.6063 25.2838 18.8622 25.6952 19.0402C26.1264 19.225 26.59 19.3203 27.0585 19.3203C27.527 19.3203 27.9906 19.225 28.4218 19.0402C28.835 18.8612 29.2099 18.6031 29.5258 18.2801C29.8411 17.9594 30.0936 17.5815 30.27 17.1663C30.4511 16.7378 30.5445 16.2767 30.5445 15.8109C30.5445 15.345 30.4511 14.884 30.27 14.4555C30.0936 14.0402 29.8411 13.6624 29.5258 13.3416C29.2099 13.0187 28.835 12.7606 28.4218 12.5816C27.9938 12.3935 27.5314 12.2981 27.0646 12.3016Z" fill="#26C6D0"/>
<path d="M39.1572 11.9173C39.1576 12.2043 39.0878 12.487 38.9541 12.7403C38.8203 12.9936 38.6267 13.2097 38.3903 13.3694C38.154 13.5292 37.8822 13.6276 37.5991 13.656C37.3161 13.6844 37.0304 13.642 36.7675 13.5324C36.5046 13.4227 36.2725 13.2494 36.0919 13.0277C35.9113 12.8059 35.7876 12.5426 35.732 12.2612C35.6764 11.9797 35.6904 11.6887 35.7729 11.4141C35.8554 11.1394 36.0038 10.8895 36.2049 10.6865C36.4465 10.4426 36.7544 10.2764 37.0896 10.209C37.4249 10.1415 37.7724 10.1758 38.0883 10.3075C38.4042 10.4392 38.6744 10.6624 38.8646 10.949C39.0548 11.2355 39.1567 11.5724 39.1572 11.9173Z" fill="#EE6C8A"/>
<path d="M18.4639 11.9173C18.4643 12.2043 18.3946 12.487 18.2608 12.7403C18.1271 12.9936 17.9334 13.2097 17.6971 13.3694C17.4607 13.5292 17.189 13.6276 16.9059 13.656C16.6228 13.6844 16.3371 13.642 16.0742 13.5324C15.8113 13.4227 15.5793 13.2494 15.3986 13.0277C15.218 12.8059 15.0944 12.5426 15.0388 12.2612C14.9831 11.9797 14.9972 11.6887 15.0797 11.4141C15.1622 11.1394 15.3105 10.8895 15.5116 10.6865C15.7533 10.4426 16.0612 10.2764 16.3964 10.209C16.7316 10.1415 17.0792 10.1758 17.3951 10.3075C17.711 10.4392 17.9811 10.6624 18.1713 10.949C18.3616 11.2355 18.4634 11.5724 18.4639 11.9173Z" fill="#26C6D0"/>
</g>
<defs>
<clipPath id="clip0_102_932">
<rect width="120" height="53.3333" fill="white"/>
</clipPath>
</defs>
</svg>
